# xmcd
#
# Track frame offsets: 
#        150
#        23450
#        41895
#        64326
#        85999
#        110809
#        128622
#        147776
#        169119
#        185302
#
# Disc length: 2844 seconds
#
# Revision: 0
# Processed by: cddbd v1.5.2PL0 Copyright (c) Steve Scherf et al.
# Submitted via: ExactAudioCopyFreeDBPlugin 1.0
#
DISCID=850b1a0a
DTITLE=The Wyyntown Marshals - The Long Haul
DYEAR=2013
DGENRE=Country
TTITLE0=Driveaway
TTITLE1=Canada
TTITLE2=Low Country Comedown
TTITLE3=Whatever It Takes
TTITLE4=Tide
TTITLE5=The Submariner
TTITLE6=Crashing (Like The Reds)
TTITLE7=Curtain Call
TTITLE8=North Atlantic Soul
TTITLE9=Change Of Heart
EXTD=
EXTT0=
EXTT1=
EXTT2=
EXTT3=
EXTT4=
EXTT5=
EXTT6=
EXTT7=
EXTT8=
EXTT9=
PLAYORDER=
